<svg width="313" height="38" viewBox="0 0 313 38" fill="none" xmlns="http://www.w3.org/2000/svg">
<path fill-rule="evenodd" clip-rule="evenodd" d="M236.064 9.85704C192.36 6.08905 179.847 5.18085 155.509 4.01086C130.287 2.79837 112.202 2.28073 83.461 1.9486C76.7981 1.87161 69.6705 1.72057 61.3209 1.47929C30.649 0.592914 24.6661 0.569009 14.6528 1.2921C9.69149 1.65055 5.41477 1.81687 3.03385 1.74441C0.917042 1.67981 0.527252 1.73056 0.493872 2.07493C0.464373 2.37926 3.80248 2.97196 5.65779 2.99169C6.32265 2.99896 8.12254 3.03323 9.65767 3.06826C11.1928 3.1031 14.5764 3.12526 17.1767 3.11744C23.3 3.09876 26.2303 3.18976 36.6992 3.72361C54.2983 4.6211 67.6091 5.13447 83.9803 5.54718C90.0135 5.6992 98.0242 5.90113 101.782 5.99581C130.28 6.71372 165.027 8.25864 186.205 9.74977C211.906 11.5589 291.548 18.6756 290.156 19.0384C289.605 19.1823 280.357 19.7538 274.824 19.9861C269.741 20.1995 261.265 20.3963 250.848 20.5427C245.907 20.6124 239.126 20.7141 235.778 20.769C223.202 20.9754 219.063 21.0162 211.93 21.0048C179.071 20.9522 157.303 21.5718 126.908 23.4244C108.842 24.5254 93.9436 26.3558 77.2081 29.5305C67.6932 31.3355 66.7451 31.728 67.4872 33.5557C67.9702 34.7449 72.6247 35.3442 82.1206 35.4394C99.4742 35.6138 115.758 36.0228 131.507 36.6798C141.386 37.092 142.696 37.1275 152.769 37.2572C156.531 37.3058 163.026 37.4731 167.202 37.6295L174.794 37.9137L164.777 36.7648C149.599 35.0236 133.287 33.4588 127.887 33.2261C110.011 32.4556 100.267 32.2516 84.3133 32.3139C80.5106 32.3288 77.3066 32.299 77.1932 32.2478C76.0991 31.7526 101.989 28.3813 114.277 27.4189C142.016 25.2461 170.45 24.3748 214.016 24.3621C217.995 24.361 225.989 24.2895 231.78 24.2036C237.571 24.1174 246.7 23.9828 252.065 23.9042C272.719 23.6018 278.889 23.3415 298.847 21.9311C311.629 21.0276 311.698 21.016 312.176 19.6533C312.702 18.1552 311.761 17.3611 308.894 16.8823C306.17 16.4272 254.829 11.4748 236.064 9.85704ZM175.624 37.8378C175.857 37.9075 176.201 37.9391 176.389 37.908C176.576 37.8769 176.385 37.8197 175.965 37.7811C175.544 37.7425 175.391 37.7681 175.624 37.8378Z" fill="white"/>
</svg>
